# xmcd CD database file
#
# Track frame offsets:
#	150
#	13395
#	29622
#	43644
#	57438
#	68215
#	80593
#	93753
#	107435
#	121267
#	132413
#	144955
#	156214
#	168364
#	179778
#	194423
#
# Disc length: 2759 seconds
#
# Revision: 0
# Processed by: cddbd v1.5.1PL0 Copyright (c) Steve Scherf et al.
# Submitted via: CDex 1.51
#
DISCID=e10ac510
DTITLE=Bing Crosby - World Big Artists Series 4 Specilal Selection
DYEAR=1900
DGENRE=Jazz
TTITLE0=Play a simple melody
TTITLE1=Begin the beguin
TTITLE2=La vie en rose
TTITLE3=Mona Lisa
TTITLE4=Dinah
TTITLE5=My blue heaven
TTITLE6=Here ends the bainbow
TTITLE7=Beyond the reef
TTITLE8=Harvor Light
TTITLE9=You belong to me
TTITLE10=Changing Partners
TTITLE11=Let me call you sweetheart
TTITLE12=Dear hearts and gentle people
TTITLE13=Swinging on a star
TTITLE14=Too Ra Loo Ra Loo Ral
TTITLE15=Somebody loves me
EXTD=
EXTT0=
EXTT1=
EXTT2=
EXTT3=
EXTT4=
EXTT5=
EXTT6=
EXTT7=
EXTT8=
EXTT9=
EXTT10=
EXTT11=
EXTT12=
EXTT13=
EXTT14=
EXTT15=
PLAYORDER=
